<svg width="279" height="158" viewBox="0 0 279 158" fill="none" xmlns="http://www.w3.org/2000/svg">
<circle cx="141" cy="79" r="78" fill="#8EC3B0" stroke="#4B685E" stroke-width="2"/>
<path d="M15.351 102L1.015 57.2H16.567L28.151 95.024H20.343L32.631 57.2H46.519L57.975 95.024H50.487L62.583 57.2H76.919L62.583 102H46.391L37.047 71.024H41.399L31.543 102H15.351ZM109.329 57.2H124.433V102H109.329V57.2ZM95.377 102H80.273V57.2H95.377V102ZM110.353 85.488H94.353V73.072H110.353V85.488ZM155.199 103.024C151.572 103.024 148.201 102.448 145.087 101.296C142.015 100.144 139.348 98.5227 137.087 96.432C134.825 94.2987 133.055 91.8027 131.775 88.944C130.537 86.0853 129.919 82.9707 129.919 79.6C129.919 76.1867 130.537 73.072 131.775 70.256C133.055 67.3973 134.825 64.9227 137.087 62.832C139.348 60.6987 142.015 59.056 145.087 57.904C148.201 56.752 151.572 56.176 155.199 56.176C158.868 56.176 162.239 56.752 165.311 57.904C168.383 59.056 171.049 60.6987 173.311 62.832C175.572 64.9227 177.321 67.3973 178.559 70.256C179.839 73.072 180.479 76.1867 180.479 79.6C180.479 82.9707 179.839 86.0853 178.559 88.944C177.321 91.8027 175.572 94.2987 173.311 96.432C171.049 98.5227 168.383 100.144 165.311 101.296C162.239 102.448 158.868 103.024 155.199 103.024ZM155.199 90.8C156.607 90.8 157.908 90.544 159.103 90.032C160.34 89.52 161.407 88.7947 162.303 87.856C163.241 86.8747 163.967 85.7013 164.479 84.336C164.991 82.928 165.247 81.3493 165.247 79.6C165.247 77.8507 164.991 76.2933 164.479 74.928C163.967 73.52 163.241 72.3467 162.303 71.408C161.407 70.4267 160.34 69.68 159.103 69.168C157.908 68.656 156.607 68.4 155.199 68.4C153.791 68.4 152.468 68.656 151.231 69.168C150.036 69.68 148.969 70.4267 148.031 71.408C147.135 72.3467 146.431 73.52 145.919 74.928C145.407 76.2933 145.151 77.8507 145.151 79.6C145.151 81.3493 145.407 82.928 145.919 84.336C146.431 85.7013 147.135 86.8747 148.031 87.856C148.969 88.7947 150.036 89.52 151.231 90.032C152.468 90.544 153.791 90.8 155.199 90.8ZM209.449 103.024C205.822 103.024 202.451 102.448 199.337 101.296C196.265 100.144 193.598 98.5227 191.337 96.432C189.075 94.2987 187.305 91.8027 186.025 88.944C184.787 86.0853 184.169 82.9707 184.169 79.6C184.169 76.1867 184.787 73.072 186.025 70.256C187.305 67.3973 189.075 64.9227 191.337 62.832C193.598 60.6987 196.265 59.056 199.337 57.904C202.451 56.752 205.822 56.176 209.449 56.176C213.118 56.176 216.489 56.752 219.561 57.904C222.633 59.056 225.299 60.6987 227.561 62.832C229.822 64.9227 231.571 67.3973 232.809 70.256C234.089 73.072 234.729 76.1867 234.729 79.6C234.729 82.9707 234.089 86.0853 232.809 88.944C231.571 91.8027 229.822 94.2987 227.561 96.432C225.299 98.5227 222.633 100.144 219.561 101.296C216.489 102.448 213.118 103.024 209.449 103.024ZM209.449 90.8C210.857 90.8 212.158 90.544 213.353 90.032C214.59 89.52 215.657 88.7947 216.553 87.856C217.491 86.8747 218.217 85.7013 218.729 84.336C219.241 82.928 219.497 81.3493 219.497 79.6C219.497 77.8507 219.241 76.2933 218.729 74.928C218.217 73.52 217.491 72.3467 216.553 71.408C215.657 70.4267 214.59 69.68 213.353 69.168C212.158 68.656 210.857 68.4 209.449 68.4C208.041 68.4 206.718 68.656 205.481 69.168C204.286 69.68 203.219 70.4267 202.281 71.408C201.385 72.3467 200.681 73.52 200.169 74.928C199.657 76.2933 199.401 77.8507 199.401 79.6C199.401 81.3493 199.657 82.928 200.169 84.336C200.681 85.7013 201.385 86.8747 202.281 87.856C203.219 88.7947 204.286 89.52 205.481 90.032C206.718 90.544 208.041 90.8 209.449 90.8ZM256.915 103.024C253.16 103.024 249.533 102.597 246.035 101.744C242.536 100.891 239.656 99.7813 237.395 98.416L242.259 87.408C244.392 88.6453 246.76 89.648 249.363 90.416C252.008 91.1413 254.568 91.504 257.043 91.504C258.493 91.504 259.624 91.4187 260.435 91.248C261.288 91.0347 261.907 90.7573 262.291 90.416C262.675 90.032 262.867 89.584 262.867 89.072C262.867 88.2613 262.419 87.6213 261.523 87.152C260.627 86.6827 259.432 86.2987 257.939 86C256.488 85.6587 254.888 85.3173 253.139 84.976C251.389 84.592 249.619 84.1013 247.827 83.504C246.077 82.9067 244.456 82.1173 242.963 81.136C241.512 80.1547 240.339 78.8747 239.443 77.296C238.547 75.6747 238.099 73.6693 238.099 71.28C238.099 68.5067 238.867 65.9893 240.403 63.728C241.981 61.424 244.307 59.5893 247.379 58.224C250.493 56.8587 254.355 56.176 258.963 56.176C261.992 56.176 264.979 56.496 267.923 57.136C270.867 57.776 273.512 58.7573 275.859 60.08L271.315 71.024C269.096 69.9147 266.941 69.0827 264.851 68.528C262.803 67.9733 260.797 67.696 258.835 67.696C257.384 67.696 256.232 67.824 255.378 68.08C254.525 68.336 253.907 68.6773 253.523 69.104C253.181 69.5307 253.01 70 253.01 70.512C253.01 71.28 253.459 71.8987 254.355 72.368C255.251 72.7947 256.424 73.1573 257.875 73.456C259.368 73.7547 260.989 74.0747 262.739 74.416C264.531 74.7573 266.301 75.2267 268.051 75.824C269.8 76.4213 271.4 77.2107 272.851 78.192C274.344 79.1733 275.539 80.4533 276.435 82.032C277.331 83.6107 277.779 85.5733 277.779 87.92C277.779 90.6507 276.989 93.168 275.411 95.472C273.875 97.7333 271.571 99.568 268.499 100.976C265.427 102.341 261.565 103.024 256.915 103.024Z" fill="#DEF5E5"/>
<path d="M15.351 102L13.4462 102.61L13.8911 104H15.351V102ZM1.015 57.2V55.2H-1.7249L-0.889848 57.8095L1.015 57.2ZM16.567 57.2L18.4793 56.6143L18.0462 55.2H16.567V57.2ZM28.151 95.024V97.024H30.8552L30.0633 94.4383L28.151 95.024ZM20.343 95.024L18.4409 94.406L17.5904 97.024H20.343V95.024ZM32.631 57.2V55.2H31.1779L30.7289 56.582L32.631 57.2ZM46.519 57.2L48.4331 56.6203L48.003 55.2H46.519V57.2ZM57.975 95.024V97.024H60.6705L59.8891 94.4443L57.975 95.024ZM50.487 95.024L48.582 94.4148L47.7476 97.024H50.487V95.024ZM62.583 57.2V55.2H61.1228L60.678 56.5908L62.583 57.2ZM76.919 57.2L78.8239 57.8095L79.6589 55.2H76.919V57.2ZM62.583 102V104H64.0429L64.4879 102.61L62.583 102ZM46.391 102L44.4762 102.578L44.9053 104H46.391V102ZM37.047 71.024V69.024H34.3547L35.1322 71.6016L37.047 71.024ZM41.399 71.024L43.3049 71.6304L44.1342 69.024H41.399V71.024ZM31.543 102V104H33.0054L33.4489 102.606L31.543 102ZM17.2558 101.39L2.91985 56.5904L-0.889848 57.8095L13.4462 102.61L17.2558 101.39ZM1.015 59.2H16.567V55.2H1.015V59.2ZM14.6547 57.7857L26.2387 95.6097L30.0633 94.4383L18.4793 56.6143L14.6547 57.7857ZM28.151 93.024H20.343V97.024H28.151V93.024ZM22.2451 95.642L34.5331 57.818L30.7289 56.582L18.4409 94.406L22.2451 95.642ZM32.631 59.2H46.519V55.2H32.631V59.2ZM44.6049 57.7797L56.0609 95.6037L59.8891 94.4443L48.4331 56.6203L44.6049 57.7797ZM57.975 93.024H50.487V97.024H57.975V93.024ZM52.392 95.6332L64.488 57.8092L60.678 56.5908L48.582 94.4148L52.392 95.6332ZM62.583 59.2H76.919V55.2H62.583V59.2ZM75.0142 56.5904L60.6782 101.39L64.4879 102.61L78.8239 57.8095L75.0142 56.5904ZM62.583 100H46.391V104H62.583V100ZM48.3058 101.422L38.9618 70.4464L35.1322 71.6016L44.4762 102.578L48.3058 101.422ZM37.047 73.024H41.399V69.024H37.047V73.024ZM39.4931 70.4176L29.6371 101.394L33.4489 102.606L43.3049 71.6304L39.4931 70.4176ZM31.543 100H15.351V104H31.543V100ZM109.329 57.2V55.2H107.329V57.2H109.329ZM124.433 57.2H126.433V55.2H124.433V57.2ZM124.433 102V104H126.433V102H124.433ZM109.329 102H107.329V104H109.329V102ZM95.377 102V104H97.377V102H95.377ZM80.273 102H78.273V104H80.273V102ZM80.273 57.2V55.2H78.273V57.2H80.273ZM95.377 57.2H97.377V55.2H95.377V57.2ZM110.353 85.488V87.488H112.353V85.488H110.353ZM94.353 85.488H92.353V87.488H94.353V85.488ZM94.353 73.072V71.072H92.353V73.072H94.353ZM110.353 73.072H112.353V71.072H110.353V73.072ZM109.329 59.2H124.433V55.2H109.329V59.2ZM122.433 57.2V102H126.433V57.2H122.433ZM124.433 100H109.329V104H124.433V100ZM111.329 102V57.2H107.329V102H111.329ZM95.377 100H80.273V104H95.377V100ZM82.273 102V57.2H78.273V102H82.273ZM80.273 59.2H95.377V55.2H80.273V59.2ZM93.377 57.2V102H97.377V57.2H93.377ZM110.353 83.488H94.353V87.488H110.353V83.488ZM96.353 85.488V73.072H92.353V85.488H96.353ZM94.353 75.072H110.353V71.072H94.353V75.072ZM108.353 73.072V85.488H112.353V73.072H108.353ZM145.087 101.296L144.384 103.169L144.393 103.172L145.087 101.296ZM137.087 96.432L135.714 97.8868L135.721 97.8937L135.729 97.9005L137.087 96.432ZM131.775 88.944L129.939 89.7384L129.944 89.7499L129.949 89.7613L131.775 88.944ZM131.775 70.256L129.949 69.4386L129.943 69.4515L131.775 70.256ZM137.087 62.832L138.444 64.3005L138.452 64.2937L138.459 64.2868L137.087 62.832ZM145.087 57.904L144.393 56.0282L144.384 56.0313L145.087 57.904ZM165.311 57.904L164.608 59.7767V59.7767L165.311 57.904ZM173.311 62.832L171.938 64.2868L171.945 64.2937L171.953 64.3005L173.311 62.832ZM178.559 70.256L176.723 71.0504L176.73 71.0671L176.738 71.0836L178.559 70.256ZM178.559 88.944L176.733 88.1267L176.728 88.1381L176.723 88.1496L178.559 88.944ZM173.311 96.432L174.668 97.9005L174.676 97.8937L174.683 97.8868L173.311 96.432ZM165.311 101.296L164.608 99.4233L165.311 101.296ZM159.103 90.032L158.338 88.184L158.326 88.1888L158.315 88.1937L159.103 90.032ZM162.303 87.856L160.857 86.4736L160.856 86.475L162.303 87.856ZM164.479 84.336L166.351 85.0382L166.355 85.0289L166.358 85.0195L164.479 84.336ZM164.479 74.928L162.599 75.6115L162.602 75.6209L162.606 75.6302L164.479 74.928ZM162.303 71.408L160.826 72.7565L160.856 72.7901L160.888 72.8222L162.303 71.408ZM159.103 69.168L158.315 71.0063L158.326 71.0112L158.338 71.016L159.103 69.168ZM151.23 69.168L150.466 67.32L150.454 67.3248L150.443 67.3297L151.23 69.168ZM148.031 71.408L146.585 70.0256L146.584 70.027L148.031 71.408ZM145.919 74.928L147.791 75.6302L147.795 75.6209L147.798 75.6115L145.919 74.928ZM145.919 84.336L144.039 85.0195L144.042 85.0289L144.046 85.0382L145.919 84.336ZM148.031 87.856L146.554 89.2045L146.584 89.2381L146.616 89.2702L148.031 87.856ZM151.23 90.032L150.443 91.8703L150.454 91.8752L150.466 91.88L151.23 90.032ZM155.199 101.024C151.787 101.024 148.653 100.483 145.78 99.4202L144.393 103.172C147.749 104.413 151.357 105.024 155.199 105.024V101.024ZM145.789 99.4233C142.943 98.3563 140.503 96.867 138.444 94.9635L135.729 97.9005C138.193 100.178 141.086 101.932 144.384 103.169L145.789 99.4233ZM138.459 94.9772C136.391 93.0259 134.773 90.747 133.6 88.1267L129.949 89.7613C131.336 92.8584 133.26 95.5715 135.714 97.8868L138.459 94.9772ZM133.61 88.1496C132.49 85.5617 131.919 82.7201 131.919 79.6H127.919C127.919 83.2213 128.585 86.609 129.939 89.7384L133.61 88.1496ZM131.919 79.6C131.919 76.4331 132.491 73.5964 133.606 71.0605L129.943 69.4515C128.583 72.5476 127.919 75.9402 127.919 79.6H131.919ZM133.6 71.0733C134.771 68.4568 136.385 66.2047 138.444 64.3005L135.729 61.3635C133.266 63.6406 131.338 66.3379 129.949 69.4387L133.6 71.0733ZM138.459 64.2868C140.516 62.3459 142.952 60.8405 145.789 59.7767L144.384 56.0313C141.077 57.2714 138.179 59.0514 135.714 61.3772L138.459 64.2868ZM145.78 59.7798C148.653 58.7172 151.787 58.176 155.199 58.176V54.176C151.357 54.176 147.749 54.7868 144.393 56.0282L145.78 59.7798ZM155.199 58.176C158.656 58.176 161.786 58.7182 164.608 59.7767L166.013 56.0313C162.691 54.7858 159.079 54.176 155.199 54.176V58.176ZM164.608 59.7767C167.445 60.8405 169.881 62.3459 171.938 64.2868L174.683 61.3772C172.218 59.0514 169.32 57.2714 166.013 56.0313L164.608 59.7767ZM171.953 64.3005C174.007 66.2 175.595 68.4443 176.723 71.0504L180.394 69.4616C179.047 66.3504 177.136 63.6453 174.668 61.3635L171.953 64.3005ZM176.738 71.0836C177.888 73.6139 178.479 76.4424 178.479 79.6H182.479C182.479 75.931 181.789 72.5301 180.379 69.4284L176.738 71.0836ZM178.479 79.6C178.479 82.7107 177.889 85.5443 176.733 88.1267L180.384 89.7613C181.788 86.6264 182.479 83.2306 182.479 79.6H178.479ZM176.723 88.1496C175.593 90.7595 174.001 93.0306 171.938 94.9772L174.683 97.8868C177.142 95.5667 179.049 92.8459 180.394 89.7384L176.723 88.1496ZM171.953 94.9635C169.894 96.867 167.454 98.3563 164.608 99.4233L166.013 103.169C169.311 101.932 172.204 100.178 174.668 97.9005L171.953 94.9635ZM164.608 99.4233C161.786 100.482 158.656 101.024 155.199 101.024V105.024C159.079 105.024 162.691 104.414 166.013 103.169L164.608 99.4233ZM155.199 92.8C156.855 92.8 158.427 92.4976 159.89 91.8703L158.315 88.1937C157.389 88.5904 156.358 88.8 155.199 88.8V92.8ZM159.867 91.88C161.354 91.265 162.655 90.3836 163.749 89.2369L160.856 86.475C160.158 87.2057 159.326 87.775 158.338 88.184L159.867 91.88ZM163.748 89.2384C164.887 88.0475 165.751 86.638 166.351 85.0382L162.606 83.6338C162.182 84.7647 161.595 85.7018 160.857 86.4736L163.748 89.2384ZM166.358 85.0195C166.962 83.3591 167.247 81.5441 167.247 79.6H163.247C163.247 81.1545 163.019 82.4969 162.599 83.6525L166.358 85.0195ZM167.247 79.6C167.247 77.6575 166.962 75.8555 166.351 74.2257L162.606 75.6302C163.019 76.7312 163.247 78.0439 163.247 79.6H167.247ZM166.358 74.2445C165.759 72.5973 164.887 71.1642 163.717 69.9938L160.888 72.8222C161.595 73.5291 162.174 74.4427 162.599 75.6115L166.358 74.2445ZM163.779 70.0595C162.684 68.8597 161.374 67.9433 159.867 67.32L158.338 71.016C159.306 71.4167 160.129 71.9937 160.826 72.7565L163.779 70.0595ZM159.89 67.3297C158.427 66.7024 156.855 66.4 155.199 66.4V70.4C156.358 70.4 157.389 70.6096 158.315 71.0063L159.89 67.3297ZM155.199 66.4C153.542 66.4 151.958 66.7025 150.466 67.32L151.995 71.016C152.978 70.6095 154.039 70.4 155.199 70.4V66.4ZM150.443 67.3297C148.989 67.9526 147.702 68.8584 146.585 70.0256L149.476 72.7904C150.237 71.9949 151.082 71.4074 152.018 71.0063L150.443 67.3297ZM146.584 70.027C145.47 71.1943 144.631 72.6165 144.039 74.2445L147.798 75.6115C148.23 74.4235 148.799 73.499 149.477 72.789L146.584 70.027ZM144.046 74.2258C143.435 75.8555 143.15 77.6575 143.15 79.6H147.15C147.15 78.0439 147.378 76.7312 147.791 75.6302L144.046 74.2258ZM143.15 79.6C143.15 81.5441 143.435 83.3591 144.039 85.0195L147.798 83.6525C147.378 82.4969 147.15 81.1545 147.15 79.6H143.15ZM144.046 85.0382C144.639 86.619 145.47 88.0174 146.554 89.2045L149.507 86.5075C148.799 85.7319 148.222 84.7837 147.791 83.6338L144.046 85.0382ZM146.616 89.2702C147.731 90.3849 149.009 91.2559 150.443 91.8703L152.018 88.1937C151.063 87.7841 150.207 87.2045 149.445 86.4418L146.616 89.2702ZM150.466 91.88C151.958 92.4975 153.542 92.8 155.199 92.8V88.8C154.039 88.8 152.978 88.5905 151.995 88.184L150.466 91.88ZM199.337 101.296L198.634 103.169L198.643 103.172L199.337 101.296ZM191.337 96.432L189.964 97.8868L189.971 97.8937L189.979 97.9005L191.337 96.432ZM186.025 88.944L184.189 89.7384L184.194 89.7499L184.199 89.7613L186.025 88.944ZM186.025 70.256L184.199 69.4386L184.193 69.4515L186.025 70.256ZM191.337 62.832L192.694 64.3005L192.702 64.2937L192.709 64.2868L191.337 62.832ZM199.337 57.904L198.643 56.0282L198.634 56.0313L199.337 57.904ZM219.561 57.904L218.858 59.7767V59.7767L219.561 57.904ZM227.561 62.832L226.188 64.2868L226.195 64.2937L226.203 64.3005L227.561 62.832ZM232.809 70.256L230.973 71.0504L230.98 71.0671L230.988 71.0836L232.809 70.256ZM232.809 88.944L230.983 88.1267L230.978 88.1381L230.973 88.1496L232.809 88.944ZM227.561 96.432L228.918 97.9005L228.926 97.8937L228.933 97.8868L227.561 96.432ZM219.561 101.296L218.858 99.4233L219.561 101.296ZM213.353 90.032L212.588 88.184L212.576 88.1888L212.565 88.1937L213.353 90.032ZM216.553 87.856L215.107 86.4736L215.106 86.475L216.553 87.856ZM218.729 84.336L220.601 85.0382L220.605 85.0289L220.608 85.0195L218.729 84.336ZM218.729 74.928L216.849 75.6115L216.852 75.6209L216.856 75.6302L218.729 74.928ZM216.553 71.408L215.076 72.7565L215.106 72.7901L215.138 72.8222L216.553 71.408ZM213.353 69.168L212.565 71.0063L212.576 71.0112L212.588 71.016L213.353 69.168ZM205.48 69.168L204.716 67.32L204.704 67.3248L204.693 67.3297L205.48 69.168ZM202.281 71.408L200.835 70.0256L200.834 70.027L202.281 71.408ZM200.169 74.928L202.041 75.6302L202.045 75.6209L202.048 75.6115L200.169 74.928ZM200.169 84.336L198.289 85.0195L198.292 85.0289L198.296 85.0382L200.169 84.336ZM202.281 87.856L200.804 89.2045L200.834 89.2381L200.866 89.2702L202.281 87.856ZM205.48 90.032L204.693 91.8703L204.704 91.8752L204.716 91.88L205.48 90.032ZM209.449 101.024C206.037 101.024 202.903 100.483 200.03 99.4202L198.643 103.172C201.999 104.413 205.607 105.024 209.449 105.024V101.024ZM200.039 99.4233C197.193 98.3563 194.753 96.867 192.694 94.9635L189.979 97.9005C192.443 100.178 195.336 101.932 198.634 103.169L200.039 99.4233ZM192.709 94.9772C190.641 93.0259 189.023 90.747 187.85 88.1267L184.199 89.7613C185.586 92.8584 187.51 95.5715 189.964 97.8868L192.709 94.9772ZM187.86 88.1496C186.74 85.5617 186.169 82.7201 186.169 79.6H182.169C182.169 83.2213 182.835 86.609 184.189 89.7384L187.86 88.1496ZM186.169 79.6C186.169 76.4331 186.741 73.5964 187.856 71.0605L184.193 69.4515C182.833 72.5476 182.169 75.9402 182.169 79.6H186.169ZM187.85 71.0733C189.021 68.4568 190.635 66.2047 192.694 64.3005L189.979 61.3635C187.516 63.6406 185.588 66.3379 184.199 69.4387L187.85 71.0733ZM192.709 64.2868C194.766 62.3459 197.202 60.8405 200.039 59.7767L198.634 56.0313C195.327 57.2714 192.429 59.0514 189.964 61.3772L192.709 64.2868ZM200.03 59.7798C202.903 58.7172 206.037 58.176 209.449 58.176V54.176C205.607 54.176 201.999 54.7868 198.643 56.0282L200.03 59.7798ZM209.449 58.176C212.906 58.176 216.036 58.7182 218.858 59.7767L220.263 56.0313C216.941 54.7858 213.329 54.176 209.449 54.176V58.176ZM218.858 59.7767C221.695 60.8405 224.131 62.3459 226.188 64.2868L228.933 61.3772C226.468 59.0514 223.57 57.2714 220.263 56.0313L218.858 59.7767ZM226.203 64.3005C228.257 66.2 229.845 68.4443 230.973 71.0504L234.644 69.4616C233.297 66.3504 231.386 63.6453 228.918 61.3635L226.203 64.3005ZM230.988 71.0836C232.138 73.6139 232.729 76.4424 232.729 79.6H236.729C236.729 75.931 236.039 72.5301 234.629 69.4284L230.988 71.0836ZM232.729 79.6C232.729 82.7107 232.139 85.5443 230.983 88.1267L234.634 89.7613C236.038 86.6264 236.729 83.2306 236.729 79.6H232.729ZM230.973 88.1496C229.843 90.7595 228.251 93.0306 226.188 94.9772L228.933 97.8868C231.392 95.5667 233.299 92.8459 234.644 89.7384L230.973 88.1496ZM226.203 94.9635C224.144 96.867 221.704 98.3563 218.858 99.4233L220.263 103.169C223.561 101.932 226.454 100.178 228.918 97.9005L226.203 94.9635ZM218.858 99.4233C216.036 100.482 212.906 101.024 209.449 101.024V105.024C213.329 105.024 216.941 104.414 220.263 103.169L218.858 99.4233ZM209.449 92.8C211.105 92.8 212.677 92.4976 214.14 91.8703L212.565 88.1937C211.639 88.5904 210.608 88.8 209.449 88.8V92.8ZM214.117 91.88C215.604 91.265 216.905 90.3836 217.999 89.2369L215.106 86.475C214.408 87.2057 213.576 87.775 212.588 88.184L214.117 91.88ZM217.998 89.2384C219.137 88.0475 220.001 86.638 220.601 85.0382L216.856 83.6338C216.432 84.7647 215.845 85.7018 215.107 86.4736L217.998 89.2384ZM220.608 85.0195C221.212 83.3591 221.497 81.5441 221.497 79.6H217.497C217.497 81.1545 217.269 82.4969 216.849 83.6525L220.608 85.0195ZM221.497 79.6C221.497 77.6575 221.212 75.8555 220.601 74.2257L216.856 75.6302C217.269 76.7312 217.497 78.0439 217.497 79.6H221.497ZM220.608 74.2445C220.009 72.5973 219.137 71.1642 217.967 69.9938L215.138 72.8222C215.845 73.5291 216.424 74.4427 216.849 75.6115L220.608 74.2445ZM218.029 70.0595C216.934 68.8597 215.624 67.9433 214.117 67.32L212.588 71.016C213.556 71.4167 214.379 71.9937 215.076 72.7565L218.029 70.0595ZM214.14 67.3297C212.677 66.7024 211.105 66.4 209.449 66.4V70.4C210.608 70.4 211.639 70.6096 212.565 71.0063L214.14 67.3297ZM209.449 66.4C207.792 66.4 206.208 66.7025 204.716 67.32L206.245 71.016C207.228 70.6095 208.289 70.4 209.449 70.4V66.4ZM204.693 67.3297C203.239 67.9526 201.952 68.8584 200.835 70.0256L203.726 72.7904C204.487 71.9949 205.332 71.4074 206.268 71.0063L204.693 67.3297ZM200.834 70.027C199.72 71.1943 198.881 72.6165 198.289 74.2445L202.048 75.6115C202.48 74.4235 203.049 73.499 203.727 72.789L200.834 70.027ZM198.296 74.2258C197.685 75.8555 197.4 77.6575 197.4 79.6H201.4C201.4 78.0439 201.628 76.7312 202.041 75.6302L198.296 74.2258ZM197.4 79.6C197.4 81.5441 197.685 83.3591 198.289 85.0195L202.048 83.6525C201.628 82.4969 201.4 81.1545 201.4 79.6H197.4ZM198.296 85.0382C198.889 86.619 199.72 88.0174 200.804 89.2045L203.757 86.5075C203.049 85.7319 202.472 84.7837 202.041 83.6338L198.296 85.0382ZM200.866 89.2702C201.981 90.3849 203.259 91.2559 204.693 91.8703L206.268 88.1937C205.313 87.7841 204.457 87.2045 203.695 86.4418L200.866 89.2702ZM204.716 91.88C206.208 92.4975 207.792 92.8 209.449 92.8V88.8C208.289 88.8 207.228 88.5905 206.245 88.184L204.716 91.88ZM246.035 101.744L246.508 99.801L246.035 101.744ZM237.395 98.416L235.565 97.6077L234.854 99.2181L236.361 100.128L237.395 98.416ZM242.258 87.408L243.262 85.6779L241.331 84.5581L240.429 86.5997L242.258 87.408ZM249.363 90.416L248.796 92.3342L248.815 92.3397L248.834 92.3448L249.363 90.416ZM260.435 91.248L260.847 93.2051L260.883 93.1974L260.92 93.1883L260.435 91.248ZM262.29 90.416L263.619 91.9108L263.663 91.8718L263.705 91.8302L262.29 90.416ZM261.522 87.152L260.594 88.9237L261.522 87.152ZM257.939 86L257.48 87.9468L257.513 87.9546L257.546 87.9612L257.939 86ZM253.139 84.976L252.71 86.9295L252.733 86.9345L252.755 86.939L253.139 84.976ZM247.827 83.504L247.18 85.3967L247.187 85.3991L247.194 85.4014L247.827 83.504ZM242.962 81.136L241.842 82.7926L241.853 82.8001L241.864 82.8074L242.962 81.136ZM239.443 77.296L237.692 78.2634L237.698 78.2733L237.703 78.2832L239.443 77.296ZM240.402 63.728L238.753 62.5975L238.748 62.6042L240.402 63.728ZM247.378 58.224L246.576 56.3922L246.566 56.3964L247.378 58.224ZM267.922 57.136L267.498 59.0904L267.922 57.136ZM275.858 60.08L277.706 60.8469L278.386 59.2087L276.841 58.3377L275.858 60.08ZM271.315 71.024L270.42 72.8129L272.339 73.7723L273.162 71.7909L271.315 71.024ZM264.85 68.528L264.328 70.4585L264.338 70.4611L264.85 68.528ZM255.378 68.08L254.804 66.1643L255.378 68.08ZM253.523 69.104L252.036 67.7661L251.997 67.8092L251.961 67.8546L253.523 69.104ZM254.355 72.368L253.426 74.1397L253.46 74.1573L253.495 74.1737L254.355 72.368ZM257.875 73.456L257.471 75.4149L257.482 75.4172L257.875 73.456ZM262.738 74.416L262.355 76.379L262.364 76.3807L262.738 74.416ZM268.051 75.824L267.404 77.7167L268.051 75.824ZM272.85 78.192L271.73 79.8486L271.741 79.8561L271.752 79.8634L272.85 78.192ZM276.435 82.032L274.695 83.0192L276.435 82.032ZM275.41 95.472L273.761 94.3415L273.756 94.3482L275.41 95.472ZM268.499 100.976L269.311 102.804L269.321 102.799L269.332 102.794L268.499 100.976ZM256.914 101.024C253.313 101.024 249.845 100.615 246.508 99.801L245.561 103.687C249.221 104.58 253.007 105.024 256.914 105.024V101.024ZM246.508 99.801C243.141 98.9795 240.466 97.934 238.428 96.7039L236.361 100.128C238.846 101.629 241.931 102.802 245.561 103.687L246.508 99.801ZM239.224 99.2243L244.088 88.2163L240.429 86.5997L235.565 97.6077L239.224 99.2243ZM241.255 89.1381C243.539 90.4628 246.056 91.5256 248.796 92.3342L249.929 88.4978C247.464 87.7704 245.244 86.8278 243.262 85.6779L241.255 89.1381ZM248.834 92.3448C251.633 93.1123 254.371 93.504 257.043 93.504V89.504C254.765 89.504 252.383 89.1703 249.891 88.4872L248.834 92.3448ZM257.043 93.504C258.545 93.504 259.836 93.4178 260.847 93.2051L260.022 89.2909C259.412 89.4195 258.441 89.504 257.043 89.504V93.504ZM260.92 93.1883C261.892 92.9452 262.879 92.5685 263.619 91.9108L260.962 88.9212C260.962 88.921 260.899 88.9747 260.72 89.055C260.545 89.1338 260.294 89.2217 259.949 89.3077L260.92 93.1883ZM263.705 91.8302C264.439 91.0964 264.867 90.1491 264.867 89.072H260.867C260.867 89.0743 260.866 89.0667 260.869 89.0518C260.872 89.0366 260.877 89.02 260.884 89.0042C260.891 88.9885 260.897 88.9795 260.898 88.9776C260.899 88.976 260.894 88.9845 260.876 89.0018L263.705 91.8302ZM264.867 89.072C264.867 87.3214 263.812 86.0934 262.451 85.3803L260.594 88.9237C260.84 89.0522 260.898 89.1387 260.892 89.1309C260.888 89.1256 260.879 89.1092 260.872 89.0861C260.865 89.0638 260.867 89.0558 260.867 89.072H264.867ZM262.451 85.3803C261.324 84.7901 259.927 84.358 258.331 84.0388L257.546 87.9612C258.937 88.2393 259.929 88.5752 260.594 88.9237L262.451 85.3803ZM258.397 84.0532C256.917 83.705 255.291 83.3583 253.522 83.013L252.755 86.939C254.484 87.2763 256.059 87.6124 257.48 87.9468L258.397 84.0532ZM253.567 83.0225C251.89 82.6544 250.188 82.1829 248.459 81.6066L247.194 85.4014C249.049 86.0198 250.888 86.5296 252.71 86.9295L253.567 83.0225ZM248.473 81.6113C246.877 81.0665 245.409 80.3503 244.061 79.4646L241.864 82.8074C243.503 83.8844 245.277 84.7468 247.18 85.3967L248.473 81.6113ZM244.083 79.4794C242.897 78.677 241.932 77.6297 241.182 76.3088L237.703 78.2832C238.745 80.1196 240.127 81.6324 241.842 82.7926L244.083 79.4794ZM241.193 76.3286C240.501 75.0771 240.098 73.4265 240.098 71.28H236.098C236.098 73.9122 236.592 76.2722 237.692 78.2634L241.193 76.3286ZM240.098 71.28C240.098 68.9012 240.75 66.7765 242.057 64.8518L238.748 62.6042C236.983 65.2022 236.098 68.1121 236.098 71.28H240.098ZM242.052 64.8585C243.383 62.9169 245.388 61.2974 248.191 60.0516L246.566 56.3964C243.225 57.8813 240.58 59.9311 238.753 62.5975L242.052 64.8585ZM248.181 60.0557C250.97 58.8333 254.538 58.176 258.962 58.176V54.176C254.171 54.176 250.016 54.884 246.576 56.3923L248.181 60.0557ZM258.962 58.176C261.85 58.176 264.694 58.4809 267.498 59.0904L268.347 55.1816C265.263 54.5111 262.134 54.176 258.962 54.176V58.176ZM267.498 59.0904C270.269 59.6929 272.723 60.6086 274.876 61.8223L276.841 58.3377C274.301 56.9061 271.464 55.8591 268.347 55.1816L267.498 59.0904ZM274.011 59.3131L269.467 70.2571L273.162 71.7909L277.706 60.8469L274.011 59.3131ZM272.209 69.2351C269.886 68.0735 267.603 67.1892 265.363 66.5949L264.338 70.4611C266.279 70.9762 268.306 71.7558 270.42 72.8129L272.209 69.2351ZM265.373 66.5975C263.169 66.0004 260.987 65.696 258.835 65.696V69.696C260.607 69.696 262.436 69.9462 264.328 70.4585L265.373 66.5975ZM258.835 65.696C257.295 65.696 255.923 65.8285 254.804 66.1643L255.953 69.9957C256.54 69.8195 257.473 69.696 258.835 69.696V65.696ZM254.804 66.1643C253.777 66.4723 252.765 66.9558 252.036 67.7661L255.009 70.4419C255.048 70.3989 255.273 70.1997 255.953 69.9957L254.804 66.1643ZM251.961 67.8546C251.356 68.6103 251.01 69.5142 251.01 70.512H255.01C255.01 70.4858 255.006 70.451 255.084 70.3534L251.961 67.8546ZM251.01 70.512C251.01 72.2636 252.115 73.4526 253.426 74.1397L255.283 70.5963C255.023 70.4605 254.96 70.3704 254.966 70.379C254.972 70.3861 254.986 70.4092 254.998 70.4451C255.009 70.481 255.01 70.5066 255.01 70.512H251.01ZM253.495 74.1737C254.588 74.6946 255.932 75.098 257.471 75.4149L258.278 71.4971C256.916 71.2167 255.913 70.8947 255.214 70.5623L253.495 74.1737ZM257.482 75.4172C258.979 75.7165 260.604 76.0371 262.355 76.379L263.122 72.453C261.375 72.1122 259.757 71.7928 258.267 71.4948L257.482 75.4172ZM262.364 76.3807C264.063 76.7042 265.743 77.1493 267.404 77.7167L268.697 73.9313C266.86 73.304 264.998 72.8105 263.113 72.4513L262.364 76.3807ZM267.404 77.7167C268.995 78.2599 270.434 78.972 271.73 79.8486L273.971 76.5354C272.366 75.4493 270.605 74.5828 268.697 73.9313L267.404 77.7167ZM271.752 79.8634C272.976 80.6678 273.953 81.7116 274.695 83.0192L278.174 81.0448C277.124 79.195 275.711 77.6788 273.949 76.5206L271.752 79.8634ZM274.695 83.0192C275.377 84.2212 275.779 85.8206 275.779 87.92H279.779C279.779 85.3261 279.284 83.0001 278.174 81.0448L274.695 83.0192ZM275.779 87.92C275.779 90.2375 275.117 92.3623 273.761 94.3415L277.06 96.6025C278.862 93.9737 279.779 91.0639 279.779 87.92H275.779ZM273.756 94.3482C272.469 96.2436 270.483 97.8662 267.665 99.1579L269.332 102.794C272.658 101.27 275.28 99.2231 277.065 96.5958L273.756 94.3482ZM267.686 99.1484C264.948 100.365 261.386 101.024 256.914 101.024V105.024C261.745 105.024 265.905 104.317 269.311 102.804L267.686 99.1484Z" fill="#4B685E"/>
</svg>
